<?xml version="1.0" encoding="iso-8859-1"?>
<!-- Generator: Adobe Illustrator 19.0.0, SVG Export Plug-In . SVG Version: 6.00 Build 0)  -->
<svg version="1.1" id="Capa_1" xmlns="http://www.w3.org/2000/svg" xmlns:xlink="http://www.w3.org/1999/xlink" x="0px" y="0px"
	 viewBox="0 0 512 512" style="enable-background:new 0 0 512 512;" xml:space="preserve">
<path style="fill:#F5C57B;" d="M471.658,382.699H40.34c-22.279,0-40.34-18.061-40.34-40.34V71.809
	c0-22.279,18.061-40.34,40.34-40.34h431.318c22.279,0,40.34,18.061,40.34,40.34v270.549
	C511.998,364.638,493.937,382.699,471.658,382.699z"/>
<path style="fill:#E5B473;" d="M512,71.814v270.548c0,22.271-18.063,40.334-40.344,40.334h-34.244
	c22.281,0,40.344-18.063,40.344-40.334V71.814c0-22.281-18.063-40.344-40.344-40.344h34.244C493.937,31.47,512,49.532,512,71.814z"
	/>
<path style="fill:#E4E8EB;" d="M467.138,118.083v178.001c0,4.599-3.75,8.31-8.348,8.263c-5.792-0.06-12.014,1.707-18.077,5.815
	c-0.605,0.41-1.155,0.909-1.621,1.471c-5.158,6.218-7.438,12.799-7.613,18.974c-0.127,4.481-3.941,7.982-8.423,7.982H88.943
	c-4.483,0-8.296-3.501-8.423-7.982c-0.175-6.174-2.454-12.756-7.613-18.974c-0.466-0.562-1.016-1.062-1.621-1.471
	c-6.063-4.108-12.285-5.875-18.077-5.815c-4.599,0.048-8.348-3.664-8.348-8.263V118.083c0-4.599,3.75-8.31,8.348-8.263
	c5.792,0.06,12.014-1.707,18.077-5.815c0.605-0.41,1.155-0.909,1.621-1.471c5.158-6.218,7.438-12.799,7.613-18.974
	c0.127-4.481,3.941-7.982,8.423-7.982h334.112c4.483,0,8.296,3.501,8.423,7.982c0.175,6.174,2.454,12.756,7.613,18.974
	c0.466,0.562,1.016,1.062,1.621,1.471c6.063,4.108,12.285,5.875,18.077,5.815C463.388,109.773,467.138,113.484,467.138,118.083z"/>
<path style="fill:#D6D6D6;" d="M458.794,109.822c-5.8,0.062-12.014-1.706-18.083-5.821c-0.6-0.403-1.158-0.91-1.623-1.468
	c-5.159-6.214-7.434-12.8-7.61-18.973c-0.124-4.477-3.939-7.982-8.426-7.982h-25.538c4.476,0,8.291,9.199,8.416,13.677
	c0.366,13.049,8.51,22.939,20.441,25.572c8.991,1.984,15.219,10.227,15.219,19.435v72.82v0.001v72.82
	c0,9.207-6.228,17.451-15.219,19.435c-11.931,2.633-20.075,12.523-20.441,25.572c-0.125,4.479-3.94,13.677-8.416,13.677h25.538
	c4.487,0,8.302-3.505,8.426-7.982c0.176-6.173,2.451-12.759,7.61-18.973c0.465-0.558,1.024-1.065,1.623-1.468
	c6.069-4.115,12.283-5.883,18.083-5.821c4.591,0.052,8.344-3.66,8.344-8.261v-88.999v-0.001v-88.999
	C467.138,113.482,463.385,109.77,458.794,109.822z"/>
<g>
	<circle style="fill:#D8A568;" cx="256" cy="132.63" r="17.13"/>
	<path style="fill:#D8A568;" d="M380.846,187.48H131.152c-4.142,0-7.5-3.358-7.5-7.5s3.358-7.5,7.5-7.5h249.694
		c4.142,0,7.5,3.358,7.5,7.5S384.988,187.48,380.846,187.48z"/>
	<path style="fill:#D8A568;" d="M348.386,214.584H163.612c-4.142,0-7.5-3.358-7.5-7.5s3.358-7.5,7.5-7.5h184.773
		c4.142,0,7.5,3.358,7.5,7.5S352.528,214.584,348.386,214.584z"/>
	<path style="fill:#D8A568;" d="M203.892,245.49h-66.213c-4.142,0-7.5-3.358-7.5-7.5s3.358-7.5,7.5-7.5h66.213
		c4.142,0,7.5,3.358,7.5,7.5S208.034,245.49,203.892,245.49z"/>
	<path style="fill:#D8A568;" d="M203.892,272.373h-66.213c-4.142,0-7.5-3.358-7.5-7.5s3.358-7.5,7.5-7.5h66.213
		c4.142,0,7.5,3.358,7.5,7.5S208.034,272.373,203.892,272.373z"/>
	<path style="fill:#D8A568;" d="M374.319,245.49h-66.213c-4.142,0-7.5-3.358-7.5-7.5s3.358-7.5,7.5-7.5h66.213
		c4.142,0,7.5,3.358,7.5,7.5S378.461,245.49,374.319,245.49z"/>
	<path style="fill:#D8A568;" d="M374.319,272.373h-66.213c-4.142,0-7.5-3.358-7.5-7.5s3.358-7.5,7.5-7.5h66.213
		c4.142,0,7.5,3.358,7.5,7.5S378.461,272.373,374.319,272.373z"/>
</g>
<path style="fill:#EF4836;" d="M211.783,351.453v123.901c0,3.92,4.193,6.414,7.638,4.542l34.11-18.535
	c1.539-0.836,3.397-0.836,4.937,0l34.11,18.535c3.445,1.872,7.638-0.622,7.638-4.542V351.453H211.783z"/>
<path style="fill:#DB3D31;" d="M300.22,351.45v123.906c0,3.919-4.198,6.41-7.641,4.539l-11.766-6.4V351.45H300.22z"/>
<circle style="fill:#F8D534;" cx="256" cy="348.21" r="66.862"/>
<path style="fill:#E5C129;" d="M322.863,347.769c0.238,36.932-29.498,67.061-66.43,67.309c-4.012,0.031-7.951-0.3-11.776-0.962
	c31.731-5.397,55.78-33.117,55.553-66.347c-0.217-32.91-24.173-60.102-55.522-65.458c3.536-0.61,7.175-0.941,10.877-0.962
	C292.486,281.112,322.615,310.848,322.863,347.769z"/>
<path style="fill:#EF4836;" d="M258.316,316.961l8.58,17.385c0.376,0.762,1.104,1.291,1.945,1.413l19.185,2.788
	c2.119,0.308,2.965,2.912,1.432,4.407l-13.882,13.532c-0.609,0.594-0.887,1.449-0.743,2.287l3.277,19.108
	c0.362,2.11-1.853,3.72-3.748,2.723l-17.16-9.021c-0.753-0.396-1.652-0.396-2.404,0l-17.16,9.021
	c-1.895,0.996-4.11-0.613-3.748-2.723l3.277-19.108c0.144-0.838-0.134-1.693-0.743-2.287l-13.882-13.532
	c-1.533-1.495-0.687-4.099,1.432-4.407l19.185-2.788c0.841-0.122,1.569-0.651,1.945-1.413l8.58-17.385
	C254.63,315.041,257.368,315.041,258.316,316.961z"/>
<path style="fill:#DB3D31;" d="M275.571,356.486c-0.61,0.589-0.879,1.448-0.734,2.285l3.267,19.107
	c0.362,2.109-1.851,3.722-3.743,2.73l-10.039-5.283l-3.577-20.885c-0.197-1.137,0.176-2.285,1.003-3.091l14.837-14.465l11.446,1.665
	c2.12,0.31,2.957,2.916,1.427,4.404L275.571,356.486z"/>
<g>
</g>
<g>
</g>
<g>
</g>
<g>
</g>
<g>
</g>
<g>
</g>
<g>
</g>
<g>
</g>
<g>
</g>
<g>
</g>
<g>
</g>
<g>
</g>
<g>
</g>
<g>
</g>
<g>
</g>
</svg>
